<svg id="Capa_1" enable-background="new 0 0 512 512" height="512" viewBox="0 0 512 512" width="512" xmlns="http://www.w3.org/2000/svg"><g><path d="m336.713 425.63-8.766-10.957c-18.022-22.528-27.947-50.823-27.947-79.673 0-8.284-6.716-15-15-15h-100c-8.284 0-15 6.716-15 15 0 28.85-9.925 57.145-27.948 79.673l-8.765 10.957c-3.602 4.503-4.304 10.671-1.806 15.868h207.039c2.498-5.197 1.795-11.366-1.807-15.868z" fill="#453d81"/><path d="m327.947 414.673c-18.022-22.528-27.947-50.823-27.947-79.673 0-8.284-6.716-15-15-15h-50v121.498h103.52c2.498-5.197 1.796-11.366-1.807-15.868z" fill="#2e2654"/><path d="m355 450h-240c-8.284 0-15-6.716-15-15s6.716-15 15-15h240c8.284 0 15 6.716 15 15s-6.716 15-15 15z" fill="#5e54ac"/><path d="m355 420h-120v30h120c8.284 0 15-6.716 15-15s-6.716-15-15-15z" fill="#453d81"/><path d="m425 0h-380c-24.813 0-45 20.187-45 45v260c0 24.813 20.187 45 45 45h380c24.813 0 45-20.187 45-45v-260c0-24.813-20.187-45-45-45z" fill="#5e54ac"/><path d="m425 0h-190v350h190c24.813 0 45-20.187 45-45v-260c0-24.813-20.187-45-45-45z" fill="#453d81"/><path d="m45 30h380c8.271 0 15 6.729 15 15v215h-410v-215c0-8.271 6.729-15 15-15z" fill="#ff6378"/><path d="m425 30h-190v230h205v-215c0-8.271-6.729-15-15-15z" fill="#d0004f"/><path d="m117.613 60c-8.284 0-15 6.716-15 15v79.924c0 1.961-1.007 3.787-2.567 4.653-2.506 1.393-6.203-1.573-7.017-2.271-2.716-2.724-6.472-4.41-10.622-4.41h-.01c-8.284 0-14.995 6.716-14.995 15 0 4.121 1.665 7.852 4.356 10.563l-.011.011c5.161 5.193 15.158 11.592 26.868 11.592 5.092 0 10.508-1.21 15.991-4.254 11.107-6.165 18.007-17.998 18.007-30.883v-79.925c0-8.284-6.715-15-15-15z" fill="#e1f0ff"/><path d="m381.566 116.771c3.158-5.54 4.973-11.941 4.973-18.761 0-20.959-17.051-38.01-38.01-38.01h-29.048c-8.284 0-15 6.716-15 15v100c0 3.99 1.59 7.815 4.417 10.63 2.812 2.8 6.617 4.37 10.583 4.37h.066c.268-.001 26.799-.119 34.054-.119 23.113 0 41.917-18.804 41.917-41.917.001-12.376-5.394-23.513-13.952-31.193zm-33.037-26.771c4.417 0 8.01 3.593 8.01 8.01s-3.593 8.011-8.01 8.011c-2.099 0-6.018.011-10.315.026h-3.733v-16.047zm5.073 69.881c-3.61 0-11.708.027-19.12.057v-23.877c1.255-.005 2.51-.009 3.738-.014h15.382c6.571 0 11.917 5.346 11.917 11.917s-5.346 11.917-11.917 11.917z" fill="#bedcf0"/><path d="m220 60c-35.841 0-65 29.159-65 65s29.159 65 65 65 65-29.159 65-65-29.159-65-65-65zm0 100c-19.299 0-35-15.701-35-35s15.701-35 35-35 35 15.701 35 35-15.701 35-35 35z" fill="#e1f0ff"/><path d="m235 61.766v31.618c11.814 5.628 20 17.682 20 31.616s-8.186 25.988-20 31.616v31.618c28.631-6.792 50-32.556 50-63.234s-21.369-56.442-50-63.234z" fill="#bedcf0"/><g><path d="m488.961 509.88c-18.164 6.611-38.249-2.754-44.86-20.918l-46.173-126.859 65.779-23.941 46.173 126.858c6.611 18.164-2.755 38.248-20.919 44.86z" fill="#5e54ac"/><path d="m430.818 350.132 58.143 159.748c18.164-6.611 27.53-26.696 20.919-44.86l-46.173-126.859z" fill="#453d81"/><path d="m444.499 387.72c-51.814 18.859-109.312-7.953-128.171-59.767s7.953-109.312 59.767-128.171 109.312 7.953 128.171 59.767-7.953 109.312-59.767 128.171z" fill="#8bb9ff"/><path d="m376.095 199.781 68.404 187.939c51.814-18.859 78.626-76.357 59.767-128.171-18.859-51.815-76.357-78.627-128.171-59.768z" fill="#4793ff"/><path d="m410.397 363.756c-29.376 0-55.851-18.512-65.88-46.064-13.2-36.271 5.567-76.519 41.838-89.72 7.707-2.805 15.729-4.228 23.842-4.228 29.375 0 55.85 18.513 65.878 46.065 13.201 36.27-5.566 76.518-41.837 89.72-7.706 2.805-15.727 4.227-23.841 4.227z" fill="#45f6ff"/><path d="m410.197 223.744c-8.113 0-16.135 1.423-23.842 4.227l47.883 131.558c36.27-13.202 55.038-53.45 41.837-89.72-10.028-27.552-36.503-46.065-65.878-46.065z" fill="#2ebeef"/></g></g></svg>